<svg version="1.1" xmlns="http://www.w3.org/2000/svg" xmlns:xlink="http://www.w3.org/1999/xlink" xmlns:a="http://ns.adobe.com/AdobeSVGViewerExtensions/3.0/" x="0px" y="0px" width="2389.5px" height="1338.8px" viewBox="0 0 2389.5 1338.8" style="enable-background:new 0 0 2389.5 1338.8;" xml:space="preserve">
<path class="blob" fill="#222" d="M2119.7,337.7c-148.4-135-410.5-279.5-582.4-321.2s-497.5-1.5-723.7,89.2S311.9,312.5,201.2,363.7  S0,537.8,0,636.7s8.5,219.7,18.9,268.3s70.4,133.8,133.4,189.4s202.5,59.8,310.1,9.5s276.7-56,375.6-12.6  c99,43.4,226.8,121.5,284.1,173.6c57.3,52.1,189,84,292.8,71c103.7-13,228.4-62.7,277-110.5c48.6-47.7,165.1-101,258.8-118.4  c93.8-17.4,230.8-74.2,304.6-126.3c73.8-52.1,134.2-162.9,134.2-246.2S2268.1,472.6,2119.7,337.7z"/>
</svg>
