<svg version="1.1" xmlns="http://www.w3.org/2000/svg" xmlns:xlink="http://www.w3.org/1999/xlink" xmlns:a="http://ns.adobe.com/AdobeSVGViewerExtensions/3.0/" x="0px" y="0px" width="3230.5px" height="1942.1px" viewBox="0 0 3230.5 1942.1" style="enable-background:new 0 0 3230.5 1942.1;" xml:space="preserve">
<path class="blob" fill="#444" d="M77.2,668.6c42.4-129.8,127.4-320.7,188.7-424.1S536.7,35.1,731.4,9.1s492.1,5.8,660.8,70.7  S1810.1,264,1946,345s342.8,173.8,459.7,206.2c117,32.5,294.7,77.4,394.9,99.9c100.2,22.5,237.9,110,306.1,194.5  s123.9,233.3,123.9,330.7c0,97.4-31.8,240.6-70.7,318.4c-38.9,77.7-144.8,170.5-235.4,206.2c-90.6,35.7-260.4,80.6-377.4,99.9  c-117,19.3-329.4,58.9-472.1,88.2s-349.5,53.2-459.7,53.2c-110.2,0-256.1-31.8-324.2-70.7c-68.1-38.9-190.1-118.5-271-177  c-81-58.5-208.2-100.8-282.7-94c-74.5,6.8-215.2,4.2-312.5-5.8s-232.8-87-300.9-171.2C55.7,1339.2,0,1188,0,1087.5  S34.7,798.4,77.2,668.6z"/>
</svg>
